<svg id="Layer_1" data-name="Layer 1" xmlns="http://www.w3.org/2000/svg" viewBox="0 0 1275 1275"><defs><style>.cls-1{fill:#fff;}</style></defs><title>chandlerg_cg_icon</title><path d="M280,1274.5A279.49,279.49,0,0,1,.5,995V280A279.49,279.49,0,0,1,280,.5H995A279.49,279.49,0,0,1,1274.5,280V995A279.49,279.49,0,0,1,995,1274.5Z"/><path class="cls-1" d="M995,1a278.75,278.75,0,0,1,279,279V995a278.75,278.75,0,0,1-279,279H280A278.75,278.75,0,0,1,1,995V280A278.75,278.75,0,0,1,280,1H995m0-1H280C125.36,0,0,125.36,0,280V995c0,154.64,125.36,280,280,280H995c154.64,0,280-125.36,280-280V280C1275,125.36,1149.64,0,995,0Z"/><path class="cls-1" d="M308,819.36q-80.8-81.6-80.8-213.6T308,392.16q80.79-81.6,204.8-81.6,108,0,183.6,60T788,533H663.16q-12.81-52.8-52.8-82t-97.6-29.2q-76.8,0-119.6,49.6t-42.8,134.4q0,84.81,42.8,134.4t119.6,49.6q57.6,0,97.6-29.2t52.8-82H788Q772,781,696.36,841t-183.6,60Q388.76,901,308,819.36Z"/><path class="cls-1" d="M1033.16,586.16v314.4h-104v-68.8q-55.2,77.61-178.4,77.6-120.81,0-199.2-81.2t-78.4-212.4q0-132,80.8-213.6t204.8-81.6q104.79,0,179.2,57.2t92.8,155.6H905.16q-13.6-48.78-52.4-75.2t-94-26.4q-76.8,0-119.6,49.6t-42.8,134.4q0,85.62,43.2,137.2t119.2,51.6q137.6,0,161.6-113.6H787.56V586.16Z"/></svg>