<svg id="Layer_1" data-name="Layer 1" xmlns="http://www.w3.org/2000/svg" viewBox="0 0 2035.77 672.6"><defs><style>.cls-1{fill:#e51067;}</style></defs><title>text_portfolio</title><path class="cls-1" d="M132.6,351.6V513H45V87H227.4q73.2,0,109.2,36.6t36,96q0,58.8-36.9,95.4T227.4,351.6Zm0-80.4h94.8q28.8,0,43.2-13.8T285,219.6q0-24-14.4-38.1t-43.2-14.1H132.6Z"/><path class="cls-1" d="M628.8,472.5q-45.6,47.7-119.4,47.7T390,472.5q-45.6-47.7-45.6-116.7T390,239.1q45.6-47.7,119.4-47.7t119.4,47.7q45.6,47.7,45.6,116.7T628.8,472.5ZM452.1,290.4q-22.5,24-22.5,65.4t22.5,65.4q22.5,24,57.3,24t57.3-24q22.5-24,22.5-65.4t-22.5-65.4q-22.5-24-57.3-24T452.1,290.4Z"/><path class="cls-1" d="M865.2,196.2V276a86,86,0,0,0-16.8-1.8q-37.8,0-56.7,19.8t-18.9,62.4V513H687.6V198.6h78.6v40.8q27-43.8,88.8-43.8Z"/><path class="cls-1" d="M1014,437.4v73.8q-14.4,3.6-40.2,3.6-96.6,0-96.6-96v-153h-42.6V198.6h42.6v-78h85.2v78h52.2v67.2h-52.2v144q0,30.6,31.8,30.6Z"/><path class="cls-1" d="M1119,198.6h48.6v67.2H1119V513h-85.2V265.8h-45V198.6h45V173.4q0-55.2,28.5-82.8t78.3-27.6l25.2,1.2v73.2a95.15,95.15,0,0,0-13.2-.6q-33.6,0-33.6,34.8Z"/><path class="cls-1" d="M1430.39,472.5q-45.6,47.7-119.4,47.7t-119.4-47.7Q1146,424.8,1146,355.8t45.6-116.7q45.6-47.7,119.4-47.7t119.4,47.7q45.6,47.7,45.6,116.7T1430.39,472.5Zm-176.7-182.1q-22.5,24-22.5,65.4t22.5,65.4q22.5,24,57.3,24t57.3-24q22.5-24,22.5-65.4t-22.5-65.4q-22.5-24-57.3-24T1253.69,290.4Z"/><path class="cls-1" d="M1574.39,513h-85.2V63h85.2Z"/><path class="cls-1" d="M1687.19,143.4q-14.4,14.4-37.2,14.4t-37.2-14.4q-14.4-14.4-14.4-36.6t14.4-36.9q14.4-14.7,37.2-14.7t37.2,14.7q14.4,14.7,14.4,36.9T1687.19,143.4ZM1607.39,513V198.6h85.2V513Z"/><path class="cls-1" d="M1990.18,472.5q-45.6,47.7-119.4,47.7t-119.4-47.7q-45.6-47.7-45.6-116.7t45.6-116.7q45.58-47.7,119.4-47.7t119.4,47.7q45.58,47.7,45.6,116.7T1990.18,472.5Zm-176.7-182.1q-22.5,24-22.5,65.4t22.5,65.4q22.5,24,57.3,24t57.3-24q22.5-24,22.5-65.4t-22.5-65.4q-22.5-24-57.3-24T1813.48,290.4Z"/></svg>