<svg id="Layer_1" data-name="Layer 1" xmlns="http://www.w3.org/2000/svg" viewBox="0 0 1563.59 672.6"><defs><style>.cls-1{fill:#2d2d96;}</style></defs><title>text_home</title><path class="cls-1" d="M398.4,87V513H310.8V337.2H132.6V513H45V87h87.6V256.8H310.8V87Z"/><path class="cls-1" d="M702,472.5q-45.6,47.7-119.4,47.7T463.2,472.5q-45.6-47.7-45.6-116.7t45.6-116.7q45.58-47.7,119.4-47.7T702,239.1q45.59,47.7,45.6,116.7T702,472.5ZM525.3,290.4q-22.5,24-22.5,65.4t22.5,65.4q22.5,24,57.3,24t57.3-24q22.5-24,22.5-65.4t-22.5-65.4q-22.5-24-57.3-24T525.3,290.4Z"/><path class="cls-1" d="M1042.8,334.2V513H957.6V326.4q0-61.8-50.4-61.8-29.41,0-45.3,18T846,332.4V513H760.8V198.6h78.6V237Q864,191.4,930,191.4q62.38,0,91.2,44.4,40.18-44.4,104.4-44.4,55.19,0,84.6,34.2t29.4,91.2V513h-85.2V326.4q0-61.8-50.4-61.8-30,0-45.6,18.3T1042.8,334.2Z"/><path class="cls-1" d="M1562.39,380.4h-228q4.2,32.4,24,49.5t52.2,17.1a77.91,77.91,0,0,0,36.9-8.7,50.7,50.7,0,0,0,23.7-25.5H1557q-13.8,48-54.3,77.7t-94.5,29.7q-69.6,0-114-46.2t-44.4-118.8q0-70.2,44.4-117t113.4-46.8q69,0,112.5,46.5t43.5,117.3ZM1407,259.8q-28.8,0-47.4,15.9t-24,43.5h142.8q-4.8-27-23.4-43.2T1407,259.8Z"/></svg>