<svg id="Layer_1" data-name="Layer 1" xmlns="http://www.w3.org/2000/svg" viewBox="0 0 1740.57 672.6"><defs><style>.cls-1{fill:#e51067;}</style></defs><title>text_about_me</title><path class="cls-1" d="M198,513H45V87H198q106.2,0,165.3,58.8T422.4,300q0,95.4-59.1,154.2T198,513Zm98.7-115.5Q330,362.4,330,300t-33.3-97.5q-33.3-35.1-101.1-35.1h-63V432.6h63Q263.4,432.6,296.7,397.5Z"/><path class="cls-1" d="M734.39,380.4h-228q4.2,32.4,24,49.5t52.2,17.1q20.4,0,36.9-8.7a50.7,50.7,0,0,0,23.7-25.5H729q-13.8,48-54.3,77.7t-94.5,29.7q-69.6,0-114-46.2t-44.4-118.8q0-70.2,44.4-117t113.4-46.8q69,0,112.5,46.5t43.5,117.3ZM579,259.8q-28.8,0-47.4,15.9t-24,43.5h142.8q-4.8-27-23.4-43.2T579,259.8Z"/><path class="cls-1" d="M859.79,520.2q-128.4,0-136.2-109.2H810a41.8,41.8,0,0,0,14.1,29.1q12.9,11.7,38.1,11.7,24,0,36.6-7.8t12.6-21q0-14.4-18-21.3t-43.5-11.1a482,482,0,0,1-51.3-11.4,87.71,87.71,0,0,1-43.8-28.2q-18-21-18-55.8,0-43.8,34.8-73.8t91.2-30q64.2,0,95.4,32.4t33.6,73.8h-82.2a38.53,38.53,0,0,0-13.5-27q-12.3-10.8-33.9-10.8-20.4,0-31.8,8.7T819,290.4q0,14.4,18,21t43.5,10.5a422.81,422.81,0,0,1,51,11.1q25.5,7.2,43.5,28.8t18,57.6q0,43.8-35.7,72.3T859.79,520.2Z"/><path class="cls-1" d="M1083.59,143.4q-14.4,14.4-37.2,14.4t-37.2-14.4q-14.4-14.4-14.4-36.6t14.4-36.9q14.4-14.7,37.2-14.7t37.2,14.7q14.4,14.7,14.4,36.9T1083.59,143.4ZM1003.79,513V198.6H1089V513Z"/><path class="cls-1" d="M1344,237V198.6h78.6V501q0,63-40.8,103.2t-111,40.2q-66.6,0-103.5-35.4t-41.1-79.2h85.2q8.4,41.4,60.6,41.4,31.8,0,48.6-16.2t16.8-45V466.2q-30.6,40.8-91.8,40.8-64.21,0-103.8-45.3t-39.6-112.5q0-67.2,39.6-112.5t103.8-45.3Q1312.77,191.4,1344,237Zm-25.2,172.2q21-22.8,21-60t-21-60q-21-22.8-55.2-22.8t-55.2,22.8q-21,22.8-21,60t21,60q21,22.8,55.2,22.8T1318.78,409.2Z"/><path class="cls-1" d="M1531.17,198.6V237q24.6-45.6,93.6-45.6,55.8,0,85.8,33.9t30,91.5V513h-85.2V326.4q0-61.8-53.4-61.8-30.6,0-47.4,18.3t-16.8,50.1V513h-85.2V198.6Z"/></svg>