<svg id="Layer_1" data-name="Layer 1" xmlns="http://www.w3.org/2000/svg" viewBox="0 0 2398.38 673.6"><defs><style>.cls-1{fill:#878787;}</style></defs><title>text_about_me</title><path class="cls-1" d="M92.67,513.5H1l153.55-426h99l153.18,426H319.6l-25.91-73.2h-175ZM207,195.42l-1.4.08-59,166.2H265.86Z"/><path class="cls-1" d="M491.79,232.7q13.2-17.4,37.5-29.1t55.5-11.7q66.6,0,105.6,46.8t39,117.6q0,70.8-39,117.6t-105.6,46.8q-68.4,0-99.6-45.6v38.4h-78.6V63.5h85.2Zm18.9,59.4q-21.3,25.2-21.3,64.2t21.3,64.2q21.3,25.2,56.1,25.2t56.1-25.2q21.3-25.2,21.3-64.2t-21.3-64.2q-21.3-25.2-56.1-25.2T510.69,292.1Z"/><path class="cls-1" d="M1007.19,473q-45.6,47.7-119.4,47.7T768.39,473q-45.6-47.7-45.6-116.7t45.6-116.7q45.58-47.7,119.4-47.7t119.4,47.7q45.58,47.7,45.6,116.7T1007.19,473ZM830.49,290.9q-22.5,24-22.5,65.4t22.5,65.4q22.5,24,57.3,24t57.3-24q22.5-24,22.5-65.4t-22.5-65.4q-22.5-24-57.3-24T830.49,290.9Z"/><path class="cls-1" d="M1263.39,377.9V199.1h85.2V513.5H1270V475.1q-24.62,45.6-92.4,45.6-55.21,0-84.9-33.9T1063,395.3V199.1h85.2V385.7q0,61.8,52.2,61.8,31.18,0,47.1-18T1263.39,377.9Z"/><path class="cls-1" d="M1529.19,437.9v73.8q-14.4,3.6-40.2,3.6-96.61,0-96.6-96v-153h-42.6V199.1h42.6v-78h85.2v78h52.2v67.2h-52.2v144q0,30.6,31.8,30.6Z"/><path class="cls-1" d="M1734.38,87.5l124.8,165L1984,87.5h80.4v426h-84V223.1l-120,154.2H1858L1738,223.1V513.5h-84V87.5Z"/><path class="cls-1" d="M2396.18,380.9h-228q4.2,32.4,24,49.5t52.2,17.1q20.4,0,36.91-8.7A50.72,50.72,0,0,0,2305,413.3h85.81q-13.82,48-54.31,77.7T2242,520.7q-69.6,0-114-46.2t-44.4-118.8q0-70.2,44.4-117t113.4-46.8q69,0,112.5,46.5t43.5,117.3ZM2240.79,260.3q-28.82,0-47.41,15.9t-24,43.5h142.8q-4.8-27-23.39-43.2T2240.79,260.3Z"/></svg>