<svg id="Layer_1" data-name="Layer 1" xmlns="http://www.w3.org/2000/svg" viewBox="0 0 1306.8 672.6"><defs><style>.cls-1{fill:#2d92ad;}</style></defs><title>text_about_me</title><path class="cls-1" d="M190.2,443.4q35.4,0,55.2-12.9t19.8-36.32q0-16.8-12.6-27.61t-32.8-16.44L175.63,337.8l-48.5-13.55A163.16,163.16,0,0,1,82.5,304.5q-20.11-12.9-32.7-37.2T37.2,209.4q0-55.8,42-93.6T192.6,78q72,0,114.3,40.8T351,220.2H265.2q-1.21-28.8-20.7-46.5T191.4,156q-30.6,0-49.2,13.18t-18.6,33.67q0,17,12.87,27.53t33.18,16.2L214.32,259l49.31,13.76a161.73,161.73,0,0,1,45.17,20.12q20.22,13.15,32.71,38.27t12.49,60q0,57.6-46.5,93.9T185.4,521.4q-42.61,0-75-12.3t-51-33.3a146.82,146.82,0,0,1-27.9-45.6A166.89,166.89,0,0,1,21,378h86.4q1.8,28.2,22.8,46.8T190.2,443.4Z"/><path class="cls-1" d="M522.6,437.4v73.8q-14.4,3.6-40.2,3.6-96.61,0-96.6-96v-153H343.2V198.6h42.6v-78H471v78h52.2v67.2H471v144q0,30.6,31.8,30.6Z"/><path class="cls-1" d="M788.4,472.5Q742.8,520.2,669,520.2T549.6,472.5Q504,424.8,504,355.8t45.6-116.7q45.6-47.7,119.4-47.7t119.4,47.7Q834,286.8,834,355.8T788.4,472.5ZM611.7,290.4q-22.5,24-22.5,65.4t22.5,65.4q22.5,24,57.3,24t57.3-24q22.5-24,22.5-65.4t-22.5-65.4q-22.5-24-57.3-24T611.7,290.4Z"/><path class="cls-1" d="M1024.8,196.2V276a86,86,0,0,0-16.8-1.8q-37.8,0-56.7,19.8t-18.9,62.4V513H847.2V198.6h78.6v40.8q27-43.8,88.8-43.8Z"/><path class="cls-1" d="M1305.6,380.4h-228q4.2,32.4,24,49.5t52.2,17.1q20.4,0,36.9-8.7a50.7,50.7,0,0,0,23.7-25.5h85.8q-13.8,48-54.3,77.7t-94.5,29.7q-69.6,0-114-46.2T993,355.2q0-70.2,44.4-117t113.4-46.8q69,0,112.5,46.5t43.5,117.3ZM1150.2,259.8q-28.8,0-47.4,15.9t-24,43.5h142.8q-4.8-27-23.4-43.2T1150.2,259.8Z"/></svg>