<svg id="Layer_1" data-name="Layer 1" xmlns="http://www.w3.org/2000/svg" viewBox="0 0 3807.14 896.8"><defs><style>.cls-1{fill:#2d2d96;}</style></defs><title>text_about_me</title><path class="cls-1" d="M114.4,612.8Q33.58,531.2,33.6,399.2t80.8-213.6Q195.19,104,319.2,104q108,0,183.6,60t91.6,162.4H469.6q-12.81-52.8-52.8-82t-97.6-29.2q-76.8,0-119.6,49.6T156.8,399.2q0,84.8,42.8,134.4t119.6,49.6q57.6,0,97.6-29.2t52.8-82H594.4q-16,102.4-91.6,162.4t-183.6,60Q195.18,694.4,114.4,612.8Z"/><path class="cls-1" d="M728,84V303.2q36-48,116-48,74.4,0,114.4,45.2t40,122V684H884.8V435.2q0-82.4-71.2-82.4-40.8,0-63.2,24.4T728,444.8V684H614.4V84Z"/><path class="cls-1" d="M1164,693.6q-70.41,0-108.8-35.2t-38.4-93.6q0-55,39.63-87.65T1179,431.7l112.18-17.3v-4q0-61.61-75.2-61.6-70.41,0-77.6,51.2h-112q5.58-61.61,51.2-103.2t137.6-41.6q91.2,0,137.6,40.8t46.4,115.2V608.8q0,47.21,12,75.2H1301.6c-.54,0-1.08-1.87-1.6-5.6s-1.2-9.47-2-17.2a229.18,229.18,0,0,1-1.2-23.6Q1257.59,693.59,1164,693.6Zm127.2-197.5-100.68,16.71q-64.12,11.1-64.12,49.17,0,43.62,63.2,43.62,48.78,0,75.2-25.39t26.4-67.45Z"/><path class="cls-1" d="M1545.59,264.8V316q32.79-60.79,124.8-60.8,74.4,0,114.4,45.2t40,122V684h-113.6V435.2q0-82.4-71.2-82.4-40.8,0-63.2,24.4t-22.4,66.8V684h-113.6V264.8Z"/><path class="cls-1" d="M2155.18,309.6V84h113.6V684H2164V632.8q-41.59,60.8-132.8,60.8-88.8,0-140.8-62.4t-52-156.8q0-94.39,52-156.8t140.8-62.4q41.59,0,74,15.6T2155.18,309.6ZM2130,560q28.39-33.6,28.4-85.6T2130,388.8q-28.39-33.6-74.8-33.6t-74.8,33.6Q1952,422.4,1952,474.4t28.4,85.6q28.39,33.6,74.8,33.6T2130,560Z"/><path class="cls-1" d="M2426.38,684h-113.6V84h113.6Z"/><path class="cls-1" d="M2860.77,507.2h-304q5.58,43.2,32,66t69.6,22.8q27.18,0,49.2-11.6a67.63,67.63,0,0,0,31.6-34h114.4q-18.42,64-72.4,103.6t-126,39.6q-92.82,0-152-61.6T2444,473.6q0-93.6,59.2-156t151.2-62.4q92,0,150,62t58,156.4Zm-207.2-160.8q-38.4,0-63.2,21.2t-32,58h190.4q-6.42-36-31.2-57.6T2653.57,346.4Z"/><path class="cls-1" d="M3116,261.6V368a114.71,114.71,0,0,0-22.4-2.4q-50.4,0-75.6,26.4t-25.2,83.2V684h-113.6V264.8H2984v54.4q36-58.4,118.4-58.4Z"/><path class="cls-1" d="M3807.15,369.6V684h-104V615.2q-55.2,77.59-178.4,77.6-120.81,0-199.2-81.2t-78.4-212.4q0-132,80.8-213.6t204.8-81.6q104.8,0,179.2,57.2t92.8,155.6h-125.6q-13.61-48.8-52.4-75.2t-94-26.4q-76.8,0-119.6,49.6t-42.8,134.4q0,85.6,43.2,137.2t119.2,51.6q137.6,0,161.6-113.6h-132.8V369.6Z"/></svg>