<svg id="Layer_1" data-name="Layer 1" xmlns="http://www.w3.org/2000/svg" viewBox="0 0 1471.79 672.6"><defs><style>.cls-1{fill:#08af17;}</style></defs><title>text_about_me</title><path class="cls-1" d="M125.4,87,250.2,252,375,87h80.4V513h-84V222.6l-120,154.2H249L129,222.6V513H45V87Z"/><path class="cls-1" d="M691.8,377.4V198.6H777V513H698.4V474.6q-24.61,45.6-92.4,45.6-55.21,0-84.9-33.9t-29.7-91.5V198.6h85.2V385.2q0,61.8,52.2,61.8,31.19,0,47.1-18T691.8,377.4Z"/><path class="cls-1" d="M921.6,520.2q-128.4,0-136.2-109.2h86.4a41.76,41.76,0,0,0,14.1,29.1q12.9,11.7,38.1,11.7,24,0,36.6-7.8t12.6-21q0-14.4-18-21.3t-43.5-11.1a481.45,481.45,0,0,1-51.3-11.4A87.71,87.71,0,0,1,816.6,351q-18-21-18-55.8,0-43.8,34.8-73.8t91.2-30q64.2,0,95.4,32.4t33.6,73.8H971.4a38.53,38.53,0,0,0-13.5-27q-12.3-10.8-33.9-10.8-20.4,0-31.8,8.7t-11.4,21.9q0,14.4,18,21t43.5,10.5a423.22,423.22,0,0,1,51,11.1q25.5,7.2,43.5,28.8t18,57.6q0,43.8-35.7,72.3T921.6,520.2Z"/><path class="cls-1" d="M1145.39,143.4q-14.4,14.4-37.2,14.4T1071,143.4q-14.4-14.4-14.4-36.6T1071,69.9q14.4-14.7,37.2-14.7t37.2,14.7q14.4,14.7,14.4,36.9T1145.39,143.4ZM1065.59,513V198.6h85.2V513Z"/><path class="cls-1" d="M1208.69,473.1Q1164,426,1164,355.8t44.7-117.3q44.68-47.1,113.1-47.1,67.18,0,105.9,37.8t44.1,84.6h-87.6q-4.82-20.4-22.2-33.6t-40.8-13.2q-33.62,0-52.8,24.3t-19.2,64.5q0,40.2,19.2,64.5t52.8,24.3q23.4,0,40.8-13.2t22.2-33.6h87.6q-5.4,46.8-44.1,84.6t-105.9,37.8Q1253.39,520.2,1208.69,473.1Z"/></svg>