<svg id="Layer_1" data-name="Layer 1" xmlns="http://www.w3.org/2000/svg" viewBox="0 0 1135.19 672.6"><defs><style>.cls-1{fill:#552e93;}</style></defs><title>text_about_me</title><path class="cls-1" d="M232.8,513H45V87H225q70.2,0,105.9,32.7T366.6,204q0,33-15.9,57.3t-43.5,36.9q30,11.4,47.7,36t17.7,58.2q0,56.4-36,88.5T232.8,513Zm-8.4-347.4H130.2V258h94.2q25.78,0,39.9-11.7t14.1-34.5q0-20.4-13.5-33.3T224.4,165.6Zm6,171.6H130.2v97.2H230.4q54,0,54-48.6,0-22.2-13.5-35.4T230.4,337.2Z"/><path class="cls-1" d="M478.2,513H393V63h85.2Z"/><path class="cls-1" d="M775.79,472.5q-45.6,47.7-119.4,47.7T537,472.5q-45.6-47.7-45.6-116.7T537,239.1q45.59-47.7,119.4-47.7t119.4,47.7q45.59,47.7,45.6,116.7T775.79,472.5ZM599.09,290.4q-22.5,24-22.5,65.4t22.5,65.4q22.5,24,57.3,24t57.3-24q22.5-24,22.5-65.4t-22.5-65.4q-22.5-24-57.3-24T599.09,290.4Z"/><path class="cls-1" d="M1056.59,237V198.6h78.6V501q0,63-40.8,103.2t-111,40.2q-66.6,0-103.5-35.4t-41.1-79.2H924q8.4,41.4,60.6,41.4,31.78,0,48.6-16.2t16.8-45V466.2q-30.6,40.8-91.8,40.8-64.22,0-103.8-45.3t-39.6-112.5q0-67.2,39.6-112.5t103.8-45.3Q1025.38,191.4,1056.59,237Zm-25.2,172.2q21-22.8,21-60t-21-60q-21-22.8-55.2-22.8T921,289.2q-21,22.8-21,60t21,60q21,22.8,55.2,22.8T1031.39,409.2Z"/></svg>