<svg id="Layer_1" data-name="Layer 1" xmlns="http://www.w3.org/2000/svg" viewBox="0 0 1740.58 672.6"><defs><style>.cls-1{fill:#ddad36;}</style></defs><title>text_about_me</title><path class="cls-1" d="M319.2,87h96L253.8,513h-90L2.4,87h98.4L209.4,396.6h1.2Z"/><path class="cls-1" d="M491.4,143.4q-14.4,14.4-37.2,14.4T417,143.4q-14.4-14.4-14.4-36.6T417,69.9q14.4-14.7,37.2-14.7t37.2,14.7q14.4,14.7,14.4,36.9T491.4,143.4ZM411.6,513V198.6h85.2V513Z"/><path class="cls-1" d="M747.59,232.2V63h85.2V513h-78.6V474.6q-31.2,45.6-99.6,45.6-66.6,0-105.6-46.8T510,355.8q0-70.8,39-117.6t105.6-46.8q31.2,0,55.5,11.7T747.59,232.2ZM728.69,420Q750,394.8,750,355.8t-21.3-64.2q-21.3-25.2-56.1-25.2t-56.1,25.2q-21.3,25.2-21.3,64.2t21.3,64.2q21.3,25.2,56.1,25.2T728.69,420Z"/><path class="cls-1" d="M1158.59,380.4h-228q4.18,32.4,24,49.5t52.2,17.1a77.94,77.94,0,0,0,36.9-8.7,50.7,50.7,0,0,0,23.7-25.5h85.8q-13.82,48-54.3,77.7t-94.5,29.7q-69.61,0-114-46.2T846,355.2q0-70.2,44.4-117t113.4-46.8q69,0,112.5,46.5t43.5,117.3Zm-155.4-120.6q-28.8,0-47.4,15.9t-24,43.5h142.8q-4.81-27-23.4-43.2T1003.19,259.8Z"/><path class="cls-1" d="M1437,472.5q-45.62,47.7-119.4,47.7t-119.4-47.7q-45.6-47.7-45.6-116.7t45.6-116.7q45.58-47.7,119.4-47.7T1437,239.1q45.59,47.7,45.6,116.7T1437,472.5Zm-176.7-182.1q-22.5,24-22.5,65.4t22.5,65.4q22.5,24,57.3,24t57.3-24q22.5-24,22.5-65.4t-22.5-65.4q-22.5-24-57.3-24T1260.29,290.4Z"/><path class="cls-1" d="M1607.39,520.2q-128.42,0-136.2-109.2h86.4a41.72,41.72,0,0,0,14.1,29.1q12.88,11.7,38.1,11.7,24,0,36.6-7.8t12.6-21q0-14.4-18-21.3t-43.5-11.1a481.45,481.45,0,0,1-51.3-11.4,87.67,87.67,0,0,1-43.8-28.2q-18-21-18-55.8,0-43.8,34.8-73.8t91.2-30q64.18,0,95.4,32.4t33.6,73.8h-82.2a38.53,38.53,0,0,0-13.5-27q-12.32-10.8-33.9-10.8-20.41,0-31.8,8.7t-11.4,21.9q0,14.4,18,21t43.5,10.5a423.64,423.64,0,0,1,51,11.1q25.48,7.2,43.5,28.8t18,57.6q0,43.8-35.7,72.3T1607.39,520.2Z"/></svg>